# xmcd
#
# Track frame offsets:
#	750
#	17419
#	34810
#	51768
#	69792
#	86804
#	101527
#	121717
#	139026
#	159074
#	173983
#	188470
#	201444
#	228753
#
# Disc length: 3058 seconds
#
# Revision: 0
# Processed by: cddbd v1.5PL3 Copyright (c) Steve Scherf et al.
# Submitted via: audiograbber 1.83.01
#
DISCID=a20be80e
DTITLE=Bunyós Pityu - Jajj nékem, ha rám nézel
DYEAR=2003
DGENRE=
TTITLE0=Jajj nékem, ha rám nézel
TTITLE1=Lakodalom van - Egy százasnak ötven a fele
TTITLE2=Necsi, necsi necsinálja
TTITLE3=Ötszázasból, bizony isten
TTITLE4=Olyan szép Õ
TTITLE5=Most jöttem én Vácról
TTITLE6=Kiskút, kerekes kút - Az a rendes iparos
TTITLE7=Országúton - Haragszik az édesanyám
TTITLE8=Ennek az asszonynak - Feleségem kardos asszony
TTITLE9=Villa Negra
TTITLE10=Úgy szeretlek
TTITLE11=Cigánylány
TTITLE12=Polgármester máma mulatunk 2003
TTITLE13=Adatsáv
EXTD=
EXTT0=
EXTT1=
EXTT2=
EXTT3=
EXTT4=
EXTT5=
EXTT6=
EXTT7=
EXTT8=
EXTT9=
EXTT10=
EXTT11=
EXTT12=
EXTT13=
PLAYORDER=
